<svg width="57" height="57" viewBox="0 0 57 57" fill="none" xmlns="http://www.w3.org/2000/svg">
<path d="M23.5408 48.2585C25.4909 48.2585 27.0719 46.6776 27.0719 44.7274C27.0719 42.7772 25.4909 41.1963 23.5408 41.1963C21.5906 41.1963 20.0096 42.7772 20.0096 44.7274C20.0096 46.6776 21.5906 48.2585 23.5408 48.2585Z" stroke="black"/>
<path d="M40.0193 48.2585C41.9694 48.2585 43.5504 46.6776 43.5504 44.7274C43.5504 42.7772 41.9694 41.1963 40.0193 41.1963C38.0691 41.1963 36.4882 42.7772 36.4882 44.7274C36.4882 46.6776 38.0691 48.2585 40.0193 48.2585Z" stroke="black"/>
<path d="M8.23926 9.4163H12.9474L21.1961 35.3111H40.0193" stroke="black" stroke-linecap="round" stroke-linejoin="round"/>
<path d="M19.3599 29.4259L14.8307 15.3015H44.2731C44.4597 15.3013 44.6437 15.3454 44.8099 15.4303C44.9761 15.5151 45.1197 15.6383 45.2289 15.7896C45.3381 15.9409 45.4098 16.116 45.438 16.3004C45.4663 16.4849 45.4502 16.6734 45.3913 16.8505L41.467 28.6208C41.389 28.8551 41.2393 29.0589 41.039 29.2034C40.8388 29.3479 40.5981 29.4257 40.3512 29.4259H19.3599Z" stroke="black" stroke-linecap="round" stroke-linejoin="round"/>
</svg>
