<svg width="57" height="57" viewBox="0 0 57 57" fill="none" xmlns="http://www.w3.org/2000/svg">
<g clip-path="url(#clip0_221_64)">
<path d="M40.745 47.1846H7.90433C7.57392 47.1847 7.24671 47.1198 6.94141 46.9934C6.63611 46.8671 6.35872 46.6818 6.12508 46.4482C5.89144 46.2145 5.70615 45.9371 5.57979 45.6318C5.45343 45.3265 5.38849 44.9993 5.38867 44.6689V11.8297C5.38867 10.4426 6.51726 9.31403 7.90433 9.31403H40.7435C42.1306 9.31403 43.2592 10.4412 43.2592 11.8297V19.775C43.2592 19.9477 43.1906 20.1133 43.0685 20.2354C42.9464 20.3576 42.7807 20.4262 42.608 20.4262C42.4353 20.4262 42.2697 20.3576 42.1476 20.2354C42.0255 20.1133 41.9569 19.9477 41.9569 19.775V11.8297C41.9561 11.5085 41.8282 11.2007 41.6011 10.9736C41.374 10.7464 41.0662 10.6185 40.745 10.6178H7.90433C7.58314 10.6185 7.27532 10.7464 7.0482 10.9736C6.82108 11.2007 6.69316 11.5085 6.69241 11.8297V44.6703C6.69316 44.9915 6.82108 45.2993 7.0482 45.5264C7.27532 45.7536 7.58314 45.8815 7.90433 45.8822H40.7435C41.0647 45.8815 41.3726 45.7536 41.5997 45.5264C41.8268 45.2993 41.9547 44.9915 41.9555 44.6703V36.8055C41.9555 36.6328 42.0241 36.4672 42.1462 36.3451C42.2683 36.223 42.4339 36.1544 42.6066 36.1544C42.7793 36.1544 42.945 36.223 43.0671 36.3451C43.1892 36.4672 43.2578 36.6328 43.2578 36.8055V44.6703C43.2578 45.3369 42.9931 45.9762 42.5219 46.4477C42.0507 46.9191 41.4115 47.1842 40.745 47.1846ZM46.895 38.1658C46.7668 38.1667 46.6411 38.1298 46.5339 38.0595C46.4267 37.9892 46.3426 37.8888 46.2923 37.7709C46.242 37.6529 46.2278 37.5227 46.2513 37.3967C46.2748 37.2707 46.3351 37.1544 46.4246 37.0626L54.942 28.2302L46.4599 19.4374C46.4006 19.3757 46.3539 19.303 46.3227 19.2233C46.2915 19.1436 46.2762 19.0585 46.2779 18.9729C46.2795 18.8873 46.298 18.8029 46.3323 18.7245C46.3665 18.646 46.4159 18.5751 46.4776 18.5158C46.6021 18.3959 46.7692 18.3304 46.9421 18.3337C47.0277 18.3353 47.1121 18.3538 47.1905 18.3881C47.269 18.4224 47.3399 18.4717 47.3992 18.5334L56.3164 27.7782C56.4339 27.8992 56.4998 28.0612 56.5 28.2299C56.5003 28.3986 56.4349 28.5608 56.3178 28.6822L47.3639 37.9666C47.3032 38.0297 47.2304 38.0798 47.1498 38.1141C47.0692 38.1483 46.9825 38.1659 46.895 38.1658Z" fill="black"/>
<path d="M55.8475 28.8814H24.3233C24.1506 28.8814 23.985 28.8128 23.8628 28.6907C23.7407 28.5686 23.6721 28.4029 23.6721 28.2302C23.6721 28.0575 23.7407 27.8919 23.8628 27.7698C23.985 27.6477 24.1506 27.5791 24.3233 27.5791H55.8475C56.0202 27.5791 56.1858 27.6477 56.3079 27.7698C56.43 27.8919 56.4986 28.0575 56.4986 28.2302C56.4986 28.4029 56.43 28.5686 56.3079 28.6907C56.1858 28.8128 56.0202 28.8814 55.8475 28.8814Z" fill="black"/>
</g>
<defs>
<clipPath id="clip0_221_64">
<rect width="56.5" height="56.5" fill="white"/>
</clipPath>
</defs>
</svg>
